control3min_grf.mot
version=1
nRows=15
nColumns 19
inDegrees=yes
endheader
time	1_ground_force_vx	1_ground_force_vy	1_ground_force_vz	1_ground_force_px	1_ground_force_py	1_ground_force_pz	1_ground_torque_x	1_ground_torque_y	1_ground_torque_z	2_ground_force_vx	2_ground_force_vy	2_ground_force_vz	2_ground_force_px	2_ground_force_py	2_ground_force_pz	2_ground_torque_x	2_ground_torque_y	2_ground_torque_z
            0.005000	           12.168769	          426.038217	          -14.070127	           -0.228088	            0.006197	           -0.398974	            0.008754	            0.306488	           -0.010122	            4.676110	          198.492030	           11.734123	           -0.253597	            0.005546	           -0.691387	           -0.025383	           -1.077462	           -0.063696
            0.005500	           11.986546	          420.990349	          -13.999603	           -0.228266	            0.006197	           -0.398996	            0.008603	            0.302154	           -0.010048	            5.389451	          195.548529	           11.629455	           -0.253008	            0.005549	           -0.691787	           -0.033714	           -1.223279	           -0.072750
            0.006000	           12.263682	          415.220131	          -13.612317	           -0.228033	            0.006197	           -0.399145	            0.008466	            0.286656	           -0.009398	            5.402497	          191.867571	           11.053176	           -0.253026	            0.005545	           -0.690633	           -0.034319	           -1.218819	           -0.070214
            0.006500	           12.173780	          409.810767	          -13.314287	           -0.227992	            0.006198	           -0.399197	            0.001858	            0.062555	           -0.002032	            5.598454	          189.474966	           10.856842	           -0.252504	            0.005549	           -0.691308	           -0.035011	           -1.184921	           -0.067896
            0.007000	           12.404306	          405.123117	          -13.151530	           -0.228009	            0.006198	           -0.399372	           -0.001780	           -0.058136	            0.001887	            5.518567	          185.608692	           10.514587	           -0.252754	            0.005548	           -0.691261	           -0.032470	           -1.092063	           -0.061865
            0.007500	           12.588713	          400.075517	          -13.127772	           -0.227871	            0.006197	           -0.398980	           -0.000918	           -0.029186	            0.000958	            5.717848	          182.295384	           10.314968	           -0.252837	            0.005547	           -0.691039	           -0.032075	           -1.022606	           -0.057863
            0.008000	           12.636373	          394.485884	          -12.830856	           -0.227591	            0.006198	           -0.399266	            0.001392	            0.043467	           -0.001414	            5.823470	          178.981372	           10.209245	           -0.253318	            0.005545	           -0.690820	           -0.033533	           -1.030612	           -0.058787
            0.008500	           12.821203	          389.617793	          -12.622902	           -0.227575	            0.006197	           -0.399098	            0.008046	            0.244511	           -0.007922	            6.115765	          175.852710	            9.963315	           -0.253044	            0.005547	           -0.691181	           -0.036893	           -1.060824	           -0.060103
            0.009000	           12.913909	          384.029545	          -12.647091	           -0.227524	            0.006199	           -0.399477	            0.010362	            0.308130	           -0.010148	            6.222675	          172.170751	            9.762421	           -0.253491	            0.005543	           -0.690648	           -0.037937	           -1.049660	           -0.059518
            0.009500	           12.915576	          379.881892	          -12.298022	           -0.227473	            0.006196	           -0.398802	            0.005198	            0.152900	           -0.004950	            6.092697	          169.224372	            9.611184	           -0.252971	            0.005544	           -0.690265	           -0.037565	           -1.043357	           -0.059258
            0.010000	           12.871242	          374.112595	          -12.139219	           -0.227608	            0.006198	           -0.399359	           -0.001297	           -0.037687	            0.001223	            6.336834	          166.463655	            9.413516	           -0.253200	            0.005544	           -0.690497	           -0.040145	           -1.054569	           -0.059636
            0.010500	           12.780639	          369.425276	          -12.067377	           -0.226998	            0.006197	           -0.399110	           -0.005980	           -0.172854	            0.005646	            6.391515	          164.255216	            9.077114	           -0.252597	            0.005549	           -0.691416	           -0.038005	           -0.976698	           -0.053975
            0.011000	           12.919527	          365.097944	          -11.856990	           -0.227158	            0.006198	           -0.399140	           -0.004292	           -0.121298	            0.003939	            6.732572	          160.574940	            8.641481	           -0.253322	            0.005541	           -0.689912	           -0.038894	           -0.927633	           -0.049921
            0.011500	           13.378782	          359.329924	          -11.974574	           -0.227246	            0.006199	           -0.399563	            0.002653	            0.071256	           -0.002375	            6.555285	          157.810859	            8.960201	           -0.253111	            0.005544	           -0.690460	           -0.034324	           -0.826311	           -0.046916
            0.012000	           13.288569	          355.002351	          -11.717762	           -0.227219	            0.006197	           -0.399002	            0.008169	            0.218242	           -0.007204	            6.988774	          154.498731	            8.666626	           -0.253889	            0.005539	           -0.689874	           -0.042468	           -0.938829	           -0.052664
